<svg width="47" height="37" viewBox="0 0 47 37" fill="none" xmlns="http://www.w3.org/2000/svg">
<path d="M39.4377 6.54076e-06H6.73347C4.0837 -0.00432197 1.93207 2.14027 1.92774 4.79013C1.92738 5.00575 1.94154 5.22109 1.97021 5.43472C2.03839 5.96153 2.52075 6.33333 3.04765 6.26516C3.17597 6.24857 3.29961 6.20627 3.41116 6.14072C3.83553 5.89381 4.31879 5.76621 4.80972 5.77135H11.6584C12.8944 5.77478 13.9925 6.56085 14.394 7.72973L14.5575 8.25681C15.2194 10.2161 17.0546 11.537 19.1226 11.5426H41.3615C41.866 11.5431 42.3614 11.6757 42.7986 11.9274C42.9463 12.0135 43.1143 12.0586 43.2853 12.0582C43.8165 12.0582 44.2472 11.6276 44.2472 11.0963V4.80943C44.2472 2.15326 42.0939 6.54076e-06 39.4377 6.54076e-06Z" fill="#10C7B3"/>
<path d="M43.7718 10.2694C43.0401 9.84295 42.2082 9.61858 41.3612 9.61913H19.1224C17.8864 9.6157 16.7883 8.82962 16.3867 7.66075L16.2232 7.13366C15.5613 5.17438 13.7261 3.85346 11.6581 3.84787H4.80942C3.98295 3.83985 3.16964 4.05447 2.45472 4.46928C0.938565 5.31776 -0.000450724 6.91976 1.62303e-07 8.6573V31.7427C1.62303e-07 34.3988 2.15325 36.5521 4.80942 36.5521H41.3612C44.0174 36.5521 46.1707 34.3988 46.1707 31.7427V14.4286C46.1766 12.7118 45.2608 11.124 43.7718 10.2694Z" fill="#007E70"/>
</svg>
