<svg width="19" height="23" viewBox="0 0 19 23" fill="none" xmlns="http://www.w3.org/2000/svg">
<path d="M16.3193 11.4952C16.3193 12.3059 16.1842 13.0864 15.937 13.8137L14.7669 12.6437C14.8437 12.2657 14.8822 11.8809 14.8819 11.4952V10.0578C14.8819 9.86718 14.9576 9.68438 15.0924 9.5496C15.2272 9.41481 15.41 9.33909 15.6006 9.33909C15.7912 9.33909 15.974 9.41481 16.1088 9.5496C16.2436 9.68438 16.3193 9.86718 16.3193 10.0578V11.4952ZM9.13232 17.2448C10.3081 17.2448 11.4005 16.8926 12.3119 16.2861L13.3439 17.3195C12.3169 18.062 11.1119 18.5197 9.85102 18.6463V21.557H14.1632C14.3538 21.557 14.5366 21.6327 14.6714 21.7675C14.8062 21.9023 14.8819 22.0851 14.8819 22.2757C14.8819 22.4663 14.8062 22.6491 14.6714 22.7839C14.5366 22.9187 14.3538 22.9944 14.1632 22.9944H4.10141C3.9108 22.9944 3.728 22.9187 3.59322 22.7839C3.45843 22.6491 3.38271 22.4663 3.38271 22.2757C3.38271 22.0851 3.45843 21.9023 3.59322 21.7675C3.728 21.6327 3.9108 21.557 4.10141 21.557H8.41362V18.6463C6.64085 18.4681 4.99746 17.6378 3.80226 16.3164C2.60707 14.9951 1.94529 13.2769 1.94531 11.4952V10.0578C1.94531 9.86718 2.02103 9.68438 2.15582 9.5496C2.2906 9.41481 2.4734 9.33909 2.66401 9.33909C2.85462 9.33909 3.03743 9.41481 3.17221 9.5496C3.30699 9.68438 3.38271 9.86718 3.38271 10.0578V11.4952C3.38271 13.0201 3.98847 14.4825 5.06673 15.5608C6.145 16.639 7.60743 17.2448 9.13232 17.2448ZM13.4445 4.30819V11.3213L5.04723 2.92397C5.37631 1.95694 6.03788 1.13808 6.91417 0.613154C7.79046 0.0882284 8.8246 -0.108693 9.83248 0.0574476C10.8404 0.223588 11.7566 0.742008 12.418 1.52042C13.0795 2.29882 13.4432 3.2867 13.4445 4.30819Z" fill="#4C4C4C"/>
<path d="M11.2692 15.2428L4.82105 8.79314V11.4955C4.82082 12.2505 5.01888 12.9925 5.3954 13.647C5.77192 14.3015 6.3137 14.8457 6.96656 15.2251C7.61941 15.6045 8.36044 15.8058 9.11553 15.8089C9.87062 15.812 10.6133 15.6168 11.2692 15.2428ZM0 1.94248L17.2488 19.1913L18.2665 18.1736L1.01768 0.924805L0 1.94248Z" fill="#4C4C4C"/>
</svg>
