<svg width="69" height="69" viewBox="0 0 69 69" fill="none" xmlns="http://www.w3.org/2000/svg">
<path d="M17.25 12.9375C10.1048 12.9375 4.3125 18.7298 4.3125 25.875C4.32524 32.8444 9.85629 38.5512 16.8218 38.7818L8.625 56.0625H17.25L28.9391 31.4196C29.7661 29.6762 30.1419 27.7914 30.1875 25.875C30.1875 18.7298 24.3952 12.9375 17.25 12.9375ZM51.75 12.9375C44.6048 12.9375 38.8125 18.7298 38.8125 25.875C38.8252 32.8444 44.3563 38.5512 51.3218 38.7818L43.125 56.0625H51.75L63.4391 31.4196C64.2661 29.6762 64.6419 27.7914 64.6875 25.875C64.6875 18.7298 58.8952 12.9375 51.75 12.9375Z" fill="#9A9A9A"/>
</svg>
