<svg width="43" height="37" viewBox="0 0 43 37" fill="none" xmlns="http://www.w3.org/2000/svg">
<path d="M28.1709 3.42578C28.5006 3.42579 28.7676 3.6937 28.7676 4.02344C28.7675 4.35311 28.5006 4.62011 28.1709 4.62012C25.7613 4.62012 23.591 6.18206 22.8135 8.44434L22.7422 8.66504C22.6584 8.94785 22.3833 9.12085 22.0986 9.08594L22.0918 9.09473L21.999 9.06738C21.6833 8.97303 21.5034 8.64033 21.5977 8.32422L21.6816 8.0625C22.6022 5.37287 25.153 3.42578 28.1709 3.42578Z" fill="#088586" stroke="#F9FFF9" stroke-width="0.3"/>
<path d="M34.4312 25.9337H31.7483C31.5014 25.9337 31.3011 25.7335 31.3011 25.4866C31.3011 25.2397 31.5014 25.0394 31.7483 25.0394H34.4312C38.1294 25.0394 41.1385 22.0304 41.1385 18.3321C41.1385 14.6339 38.1294 11.6248 34.4312 11.6248H34.3666C34.237 11.6248 34.1137 11.5686 34.0287 11.4705C33.9438 11.3725 33.9054 11.2425 33.924 11.1141C33.9639 10.8356 33.984 10.5558 33.984 10.2834C33.984 7.07823 31.3761 4.47032 28.171 4.47032C26.924 4.47032 25.7349 4.85998 24.732 5.59746C24.5116 5.75939 24.1986 5.68753 24.0712 5.4451C21.2308 0.0364817 13.8121 -0.689841 9.9658 4.01519C8.34554 5.99735 7.70891 8.57582 8.21905 11.0889C8.27526 11.3664 8.06286 11.6252 7.78083 11.6252H7.60165C3.9034 11.6252 0.894351 14.6342 0.894351 18.3325C0.894351 22.0307 3.9034 25.0398 7.60165 25.0398H10.2845C10.5314 25.0398 10.7317 25.24 10.7317 25.4869C10.7317 25.7338 10.5314 25.9341 10.2845 25.9341H7.60165C3.41019 25.9341 0 22.5239 0 18.3324C0 14.2585 3.2214 10.9228 7.25064 10.7388C6.87215 8.13153 7.59591 5.50162 9.27335 3.44923C13.3913 -1.58859 21.2831 -1.02392 24.6191 4.59362C25.6833 3.92639 26.9012 3.57637 28.1708 3.57637C32.054 3.57637 35.1311 6.88149 34.8619 10.743C38.854 10.9668 42.0326 14.285 42.0326 18.3321C42.0326 22.5239 38.6224 25.9337 34.4309 25.9337L34.4312 25.9337Z" fill="#088586"/>
<path d="M20.9561 13.9043C27.2029 13.9043 32.285 18.9865 32.2852 25.2334C32.2852 31.4803 27.203 36.5625 20.9561 36.5625C14.7093 36.5624 9.62695 31.4803 9.62695 25.2334C9.6271 18.9867 14.7093 13.9044 20.9561 13.9043ZM20.9561 15.0996C15.3683 15.0998 10.8224 19.6457 10.8223 25.2334C10.8223 30.8213 15.3683 35.368 20.9561 35.3682C26.544 35.3682 31.0908 30.8213 31.0908 25.2334C31.0907 19.6455 26.5439 15.0996 20.9561 15.0996Z" fill="#088586" stroke="#F9FFF9" stroke-width="0.3"/>
<path d="M21.1611 20.7451C21.4247 20.7451 21.6386 20.9592 21.6387 21.2227V29.7344C21.6387 29.9983 21.4247 30.2119 21.1611 30.2119C20.8976 30.2118 20.6836 29.9979 20.6836 29.7344V21.2227C20.6837 20.9592 20.8977 20.7452 21.1611 20.7451Z" fill="#088586" stroke="#483EA8" stroke-width="0.3"/>
<path d="M20.8232 20.8857C21.0096 20.6991 21.3126 20.6993 21.499 20.8857L24.1172 23.5039C24.3036 23.6904 24.3036 23.9922 24.1172 24.1787L24.1182 24.1797C24.0249 24.2733 23.9018 24.3193 23.7803 24.3193C23.6584 24.3193 23.5355 24.2728 23.4424 24.1797L21.1611 21.8984L18.8799 24.1797C18.6936 24.366 18.3915 24.3657 18.2051 24.1797C18.0186 23.9932 18.0186 23.6904 18.2051 23.5039L20.8232 20.8857Z" fill="#088586" stroke="#483EA8" stroke-width="0.3"/>
</svg>
