<svg width="46" height="46" viewBox="0 0 46 46" fill="none" xmlns="http://www.w3.org/2000/svg">
<path d="M32.7777 22.6164L17.5373 32.7766V12.4562L32.7777 22.6164ZM22.6174 2.2998C11.4098 2.2998 2.30078 11.4088 2.30078 22.6165C2.30078 33.8241 11.4098 42.9331 22.6174 42.9331C33.8251 42.9331 42.9341 33.8241 42.9341 22.6165C42.9341 11.4088 33.8251 2.2998 22.6174 2.2998ZM22.6174 4.8323C32.4523 4.8323 40.4016 12.7816 40.4016 22.6165C40.4016 32.4513 32.4523 40.4006 22.6174 40.4006C12.7826 40.4006 4.83328 32.4513 4.83328 22.6165C4.83328 12.7816 12.7826 4.8323 22.6174 4.8323Z" fill="#007E70"/>
</svg>
