<svg width="25" height="25" viewBox="0 0 25 25" fill="none" xmlns="http://www.w3.org/2000/svg">
<path d="M14.584 19.7917C18.5121 19.7917 20.4767 19.7917 21.6965 18.5708C22.9163 17.35 22.9173 15.3865 22.9173 11.4583C22.9173 7.53021 22.9173 5.56562 21.6965 4.34583C20.4757 3.12604 18.5121 3.125 14.584 3.125H10.4173C6.48919 3.125 4.52461 3.125 3.30482 4.34583C2.08503 5.56667 2.08398 7.53021 2.08398 11.4583C2.08398 15.3865 2.08398 17.351 3.30482 18.5708C3.98503 19.2521 4.89648 19.5531 6.25065 19.6854" stroke="black" stroke-width="2" stroke-linecap="round" stroke-linejoin="round"/>
<path d="M10.4168 8.83783C10.9376 7.80658 11.4585 7.29199 12.5001 7.29199C13.798 7.29199 14.5835 8.3222 14.5835 9.35241C14.5835 10.3826 14.0626 10.4285 12.5001 11.4587V12.5003M12.5001 15.1045V15.6253M14.5835 19.792C13.296 19.792 11.8772 20.3128 10.5824 20.9847C8.50117 22.0649 7.46055 22.6055 6.94805 22.2607C6.43555 21.916 6.53242 20.8493 6.72721 18.7149L6.77096 18.2295" stroke="black" stroke-width="2" stroke-linecap="round"/>
</svg>
